<?xml version="1.0" encoding="utf-8"?>
<!-- Generator: Adobe Illustrator 21.1.0, SVG Export Plug-In . SVG Version: 6.00 Build 0)  -->
<svg version="1.1" id="Layer_1" xmlns="http://www.w3.org/2000/svg" xmlns:xlink="http://www.w3.org/1999/xlink" x="0px" y="0px"
	 viewBox="0 0 21 19.2" style="enable-background:new 0 0 21 19.2;" xml:space="preserve">
<style type="text/css">
	.st0{filter:url(#Adobe_OpacityMaskFilter);}
	.st1{fill:#FFFFFF;}
	.st2{mask:url(#mask-2);fill:#707070;}
	.st3{fill:#707070;}
</style>
<title>icon/campaign</title>
<desc>Created with Sketch.</desc>
<g id="Page-1">
	<g id="Creat-campaign-step1c" transform="translate(-28.000000, -159.000000)">
		<g id="Nav_x2F_Leftbar" transform="translate(0.000000, 140.000000)">
			<g id="Nav_x2F_content1" transform="translate(28.000000, 18.000000)">
				<g id="icon_x2F_campaign" transform="translate(0.000000, 1.000000)">
					<g id="Group-3">
						<g id="Clip-2">
						</g>
						<defs>
							<filter id="Adobe_OpacityMaskFilter" filterUnits="userSpaceOnUse" x="0" y="0" width="21" height="19.1">
								<feColorMatrix  type="matrix" values="1 0 0 0 0  0 1 0 0 0  0 0 1 0 0  0 0 0 1 0"/>
							</filter>
						</defs>
						<mask maskUnits="userSpaceOnUse" x="0" y="0" width="21" height="19.1" id="mask-2">
							<g class="st0">
								<polygon id="path-1" class="st1" points="0,0 21,0 21,19.1 0,19.1 								"/>
							</g>
						</mask>
						<path id="Fill-1" class="st2" d="M19.5,0H1.5C0.7,0,0,0.9,0,1.9v13.6c0,1.1,0.7,1.9,1.5,1.9h5.1L6,18.2H5.2
							c-0.2,0-0.4,0.2-0.4,0.4c0,0.2,0.2,0.4,0.4,0.4h10.7c0.2,0,0.4-0.2,0.4-0.4c0-0.2-0.2-0.4-0.4-0.4H15l-0.6-0.8h5.1
							c0.9,0,1.5-0.9,1.5-1.9V1.9C21,0.9,20.3,0,19.5,0z M0.7,15V2.4h19.6V15L0.7,15L0.7,15z M1.5,0.9h17.9c0.3,0,0.6,0.3,0.8,0.6
							H0.8C0.9,1.2,1.2,0.9,1.5,0.9z M14,18.2H7l0.6-0.8h5.8L14,18.2z M19.5,16.6H1.5c-0.3,0-0.6-0.3-0.8-0.6h19.4
							C20.1,16.3,19.8,16.6,19.5,16.6z"/>
					</g>
					<path id="Fill-4" class="st3" d="M17.6,6.9c-0.4-0.4-1.1-0.4-1.5,0c-0.2,0.2-0.3,0.5-0.3,0.7c0,0.1,0,0.3,0.1,0.4l-2.7,2.1
						c-0.3-0.2-0.7-0.2-1,0L9.6,8c0.2-0.4,0.1-0.8-0.2-1.2C9,6.5,8.3,6.5,7.9,6.9C7.6,7.2,7.6,7.7,7.7,8l-2.7,2.1
						C4.7,9.9,4.2,10,3.8,10.3c-0.4,0.4-0.4,1.1,0,1.5C4,12,4.3,12.1,4.6,12.1c0.3,0,0.5-0.1,0.7-0.3c0.3-0.3,0.4-0.8,0.2-1.2
						l2.7-2.1c0.2,0.1,0.3,0.1,0.5,0.1c0.2,0,0.3,0,0.5-0.1l2.7,2.1c-0.2,0.4-0.1,0.8,0.2,1.2c0.2,0.2,0.5,0.3,0.7,0.3
						c0.3,0,0.5-0.1,0.7-0.3h0c0.3-0.3,0.4-0.8,0.2-1.2l2.7-2.1c0.2,0.1,0.3,0.1,0.5,0.1c0.3,0,0.5-0.1,0.7-0.3
						C18,7.9,18,7.3,17.6,6.9z M4.8,11.3c-0.1,0.1-0.4,0.1-0.5,0c-0.1-0.1-0.1-0.4,0-0.5c0.1-0.1,0.2-0.1,0.3-0.1
						c0.1,0,0.2,0,0.3,0.1C5,10.9,5,11.2,4.8,11.3z M8.4,7.9c-0.1-0.1-0.1-0.4,0-0.5c0.1-0.1,0.2-0.1,0.3-0.1c0.1,0,0.2,0,0.3,0.1
						c0.1,0.1,0.1,0.4,0,0.5C8.8,8,8.6,8,8.4,7.9z M13,11.3c-0.1,0.1-0.4,0.1-0.5,0c-0.1-0.1-0.1-0.4,0-0.5c0.1-0.1,0.2-0.1,0.3-0.1
						c0.1,0,0.2,0,0.3,0.1C13.2,10.9,13.2,11.2,13,11.3z M17.1,7.9C17,8,16.8,8,16.6,7.9c-0.1-0.1-0.1-0.2-0.1-0.3
						c0-0.1,0-0.2,0.1-0.3c0.1-0.1,0.2-0.1,0.3-0.1c0.1,0,0.2,0,0.3,0.1C17.3,7.5,17.3,7.7,17.1,7.9z"/>
				</g>
			</g>
		</g>
	</g>
</g>
</svg>
