<?xml version="1.0" encoding="utf-8"?>
<!-- Generator: Adobe Illustrator 21.1.0, SVG Export Plug-In . SVG Version: 6.00 Build 0)  -->
<svg version="1.1" id="Layer_1" xmlns="http://www.w3.org/2000/svg" xmlns:xlink="http://www.w3.org/1999/xlink" x="0px" y="0px"
	 viewBox="0 0 21 15.9" style="enable-background:new 0 0 21 15.9;" xml:space="preserve">
<style type="text/css">
	.st0{clip-path:url(#SVGID_2_);enable-background:new    ;}
	.st1{clip-path:url(#SVGID_4_);}
	.st2{clip-path:url(#SVGID_6_);}
	.st3{clip-path:url(#SVGID_8_);fill:#717171;}
	.st4{clip-path:url(#SVGID_10_);enable-background:new    ;}
	.st5{clip-path:url(#SVGID_12_);}
	.st6{clip-path:url(#SVGID_14_);}
	.st7{clip-path:url(#SVGID_16_);fill:#717171;}
	.st8{clip-path:url(#SVGID_18_);fill:#717171;}
	.st9{clip-path:url(#SVGID_20_);fill:#717171;}
	.st10{clip-path:url(#SVGID_22_);fill:#717171;}
	.st11{clip-path:url(#SVGID_24_);fill:#717171;}
	.st12{clip-path:url(#SVGID_26_);enable-background:new    ;}
	.st13{clip-path:url(#SVGID_28_);}
	.st14{clip-path:url(#SVGID_30_);}
	.st15{clip-path:url(#SVGID_32_);fill:#717171;}
	.st16{clip-path:url(#SVGID_34_);enable-background:new    ;}
	.st17{clip-path:url(#SVGID_36_);}
	.st18{clip-path:url(#SVGID_38_);}
	.st19{clip-path:url(#SVGID_40_);fill:#717171;}
</style>
<g>
	<defs>
		<rect id="SVGID_1_" x="0" y="0" width="18" height="12"/>
	</defs>
	<clipPath id="SVGID_2_">
		<use xlink:href="#SVGID_1_"  style="overflow:visible;"/>
	</clipPath>
	<g class="st0">
		<g>
			<defs>
				<rect id="SVGID_3_" x="0" y="0" width="18" height="12"/>
			</defs>
			<clipPath id="SVGID_4_">
				<use xlink:href="#SVGID_3_"  style="overflow:visible;"/>
			</clipPath>
			<g class="st1">
				<defs>
					<path id="SVGID_5_" d="M16.7,12H1.3C0.6,12,0,11.5,0,10.8V1.2C0,0.6,0.6,0,1.3,0h15.3C17.4,0,18,0.6,18,1.2v9.6
						C18,11.5,17.4,12,16.7,12z M1.3,0.6C1,0.6,0.7,0.9,0.7,1.2v9.6c0,0.3,0.3,0.6,0.7,0.6h15.3c0.4,0,0.7-0.3,0.7-0.6V1.2
						c0-0.3-0.3-0.6-0.7-0.6H1.3z"/>
				</defs>
				<clipPath id="SVGID_6_">
					<use xlink:href="#SVGID_5_"  style="overflow:visible;"/>
				</clipPath>
				<g class="st2">
					<defs>
						<rect id="SVGID_7_" x="0" y="0" width="18" height="12"/>
					</defs>
					<clipPath id="SVGID_8_">
						<use xlink:href="#SVGID_7_"  style="overflow:visible;"/>
					</clipPath>
					<rect x="-5" y="-5" class="st3" width="28" height="22"/>
				</g>
			</g>
		</g>
	</g>
</g>
<g>
	<defs>
		<rect id="SVGID_9_" x="0" y="0" width="18" height="12"/>
	</defs>
	<clipPath id="SVGID_10_">
		<use xlink:href="#SVGID_9_"  style="overflow:visible;"/>
	</clipPath>
	<g class="st4">
		<g>
			<defs>
				<rect id="SVGID_11_" x="0" y="1" width="18" height="3"/>
			</defs>
			<clipPath id="SVGID_12_">
				<use xlink:href="#SVGID_11_"  style="overflow:visible;"/>
			</clipPath>
			<g class="st5">
				<defs>
					<path id="SVGID_13_" d="M17.7,4H0.3C0.1,4,0,3.9,0,3.7V1.3C0,1.2,0.1,1,0.3,1h17.3C17.9,1,18,1.2,18,1.3v2.4
						C18,3.9,17.9,4,17.7,4z M0.7,3.4h16.7V1.6H0.7V3.4z"/>
				</defs>
				<clipPath id="SVGID_14_">
					<use xlink:href="#SVGID_13_"  style="overflow:visible;"/>
				</clipPath>
				<g class="st6">
					<defs>
						<rect id="SVGID_15_" x="0" y="0" width="18" height="12"/>
					</defs>
					<clipPath id="SVGID_16_">
						<use xlink:href="#SVGID_15_"  style="overflow:visible;"/>
					</clipPath>
					<rect x="-5" y="-4" class="st7" width="28" height="13"/>
				</g>
			</g>
		</g>
	</g>
</g>
<g>
	<defs>
		<path id="SVGID_17_" d="M16,10h-5.2c-0.2,0-0.3-0.1-0.3-0.4V6.4c0-0.2,0.1-0.4,0.3-0.4H16c0.2,0,0.3,0.1,0.3,0.4v3.3
			C16.3,9.9,16.2,10,16,10z M11.2,9.3h4.5V6.8h-4.5V9.3z"/>
	</defs>
	<clipPath id="SVGID_18_">
		<use xlink:href="#SVGID_17_"  style="overflow:visible;"/>
	</clipPath>
	<rect x="5.5" y="1" class="st8" width="15.8" height="14"/>
</g>
<g>
	<defs>
		<path id="SVGID_19_" d="M4.3,7H1.5C1.3,7,1.2,6.8,1.2,6.5C1.2,6.2,1.3,6,1.5,6h2.8c0.2,0,0.4,0.2,0.4,0.5C4.7,6.8,4.5,7,4.3,7"/>
	</defs>
	<clipPath id="SVGID_20_">
		<use xlink:href="#SVGID_19_"  style="overflow:visible;"/>
	</clipPath>
	<rect x="-3.8" y="1" class="st9" width="13.5" height="11"/>
</g>
<g>
	<defs>
		<path id="SVGID_21_" d="M9,7H6.2C6,7,5.8,6.8,5.8,6.5C5.8,6.2,6,6,6.2,6H9c0.2,0,0.4,0.2,0.4,0.5C9.3,6.8,9.2,7,9,7"/>
	</defs>
	<clipPath id="SVGID_22_">
		<use xlink:href="#SVGID_21_"  style="overflow:visible;"/>
	</clipPath>
	<rect x="0.8" y="1" class="st10" width="13.5" height="11"/>
</g>
<g>
	<defs>
		<path id="SVGID_23_" d="M5.5,9h-4C1.3,9,1.2,8.8,1.2,8.5C1.2,8.2,1.3,8,1.5,8h4c0.2,0,0.3,0.2,0.3,0.5C5.8,8.8,5.7,9,5.5,9"/>
	</defs>
	<clipPath id="SVGID_24_">
		<use xlink:href="#SVGID_23_"  style="overflow:visible;"/>
	</clipPath>
	<rect x="-3.8" y="3" class="st11" width="14.7" height="11"/>
</g>
<g>
	<defs>
		<rect id="SVGID_25_" x="1.2" y="4.1" width="19.9" height="11.8"/>
	</defs>
	<clipPath id="SVGID_26_">
		<use xlink:href="#SVGID_25_"  style="overflow:visible;"/>
	</clipPath>
	<g class="st12">
		<g>
			<defs>
				<rect id="SVGID_27_" x="7" y="9" width="3" height="1"/>
			</defs>
			<clipPath id="SVGID_28_">
				<use xlink:href="#SVGID_27_"  style="overflow:visible;"/>
			</clipPath>
			<g class="st13">
				<defs>
					<path id="SVGID_29_" d="M8.9,9.8h-1c-0.2,0-0.3-0.1-0.3-0.3c0-0.2,0.1-0.3,0.3-0.3h1c0.2,0,0.3,0.1,0.3,0.3
						C9.2,9.7,9.1,9.8,8.9,9.8"/>
				</defs>
				<clipPath id="SVGID_30_">
					<use xlink:href="#SVGID_29_"  style="overflow:visible;"/>
				</clipPath>
				<g class="st14">
					<defs>
						<rect id="SVGID_31_" x="1" y="4" width="21" height="12"/>
					</defs>
					<clipPath id="SVGID_32_">
						<use xlink:href="#SVGID_31_"  style="overflow:visible;"/>
					</clipPath>
					<rect x="2.5" y="4.3" class="st15" width="11.7" height="10.6"/>
				</g>
			</g>
		</g>
	</g>
</g>
<g>
	<defs>
		<rect id="SVGID_33_" x="1.2" y="4.1" width="19.9" height="11.8"/>
	</defs>
	<clipPath id="SVGID_34_">
		<use xlink:href="#SVGID_33_"  style="overflow:visible;"/>
	</clipPath>
	<g class="st16">
		<g>
			<defs>
				<rect id="SVGID_35_" x="1" y="4" width="21" height="12"/>
			</defs>
			<clipPath id="SVGID_36_">
				<use xlink:href="#SVGID_35_"  style="overflow:visible;"/>
			</clipPath>
			<g class="st17">
				<defs>
					<path id="SVGID_37_" d="M18.6,15.9c0,0-0.1,0-0.1,0L2.4,14.3c-0.8-0.1-1.3-0.6-1.2-1.3l0-0.1c0-0.1,0.1-0.3,0.3-0.3
						c0,0,0,0,0.1,0h16c0.4,0,0.7-0.3,0.7-0.6V4.3c0-0.1,0-0.2,0.1-0.2c0.1-0.1,0.2-0.1,0.3-0.1l1.1,0.1c0.4,0,0.7,0.2,0.9,0.4
						c0.2,0.2,0.3,0.6,0.3,0.8l-1,9.4C20,15.4,19.3,15.9,18.6,15.9z M1.9,13.2c0,0.3,0.3,0.5,0.6,0.5l16,1.5c0.4,0,0.7-0.2,0.8-0.5
						l1-9.4c0-0.1,0-0.3-0.1-0.4c-0.1-0.1-0.3-0.2-0.5-0.2L19,4.7v7.4c0,0.6-0.6,1.2-1.4,1.2H1.9z"/>
				</defs>
				<clipPath id="SVGID_38_">
					<use xlink:href="#SVGID_37_"  style="overflow:visible;"/>
				</clipPath>
				<g class="st18">
					<defs>
						<rect id="SVGID_39_" x="1" y="4" width="21" height="12"/>
					</defs>
					<clipPath id="SVGID_40_">
						<use xlink:href="#SVGID_39_"  style="overflow:visible;"/>
					</clipPath>
					<rect x="-3.8" y="-0.9" class="st19" width="29.9" height="21.8"/>
				</g>
			</g>
		</g>
	</g>
</g>
</svg>
