<svg id="Layer_1" data-name="Layer 1" xmlns="http://www.w3.org/2000/svg" viewBox="0 0 22.3 19"><title>icon</title><g id="Symbols"><g id="Button_2" data-name="Button/2"><g id="icon"><g id="refresh"><path id="Shape" class="cls-1" d="M17.4,16.3a.7.7,0,1,0-1.1-1h0a8.1,8.1,0,1,1,1.9-4.2L15.2,9.4a.7.7,0,0,0-1,.2h0a.7.7,0,0,0,.2,1h0l4,2.4a.7.7,0,0,0,.9-.1l3.4-2.8A.7.7,0,1,0,21.7,9l-2.1,1.7a9.5,9.5,0,1,0-2.2,5.6Z" transform="translate(-0.7 -0.7)"/></g><g id="tick"><path id="Shape-2" data-name="Shape" class="cls-1" d="M13.9,7.1a.4.4,0,0,0-.6,0L8.5,11.9,6.7,10.1a.4.4,0,1,0-.6.6l2.1,2.1a.4.4,0,0,0,.6,0l5.1-5.1A.4.4,0,0,0,13.9,7.1Z" transform="translate(-0.7 -0.7)"/></g></g></g></g></svg>