<?xml version="1.0" standalone="no"?>
<!DOCTYPE svg PUBLIC "-//W3C//DTD SVG 20010904//EN"
 "http://www.w3.org/TR/2001/REC-SVG-20010904/DTD/svg10.dtd">
<svg version="1.0" xmlns="http://www.w3.org/2000/svg"
 width="512.000000pt" height="512.000000pt" viewBox="0 0 512.000000 512.000000"
 preserveAspectRatio="xMidYMid meet">
<g transform="translate(0.000000,512.000000) scale(0.100000,-0.100000)">
<path d="M2235 5104 c-746 -101 -1392 -503 -1807 -1123 -182 -272 -319 -600
-382 -911 -62 -311 -62 -709 0 -1020 98 -490 370 -984 730 -1330 354 -340 808
-580 1274 -674 311 -62 709 -62 1020 0 755 152 1422 660 1774 1353 192 377
276 731 276 1161 0 431 -84 783 -277 1162 -384 757 -1115 1271 -1966 1383
-146 19 -500 19 -642 -1z m550 -514 c228 -26 454 -93 660 -194 413 -203 730
-515 938 -923 326 -640 282 -1422 -113 -2021 -160 -244 -344 -429 -585 -591
-802 -537 -1873 -431 -2561 254 -552 550 -744 1344 -503 2078 172 525 558 964
1060 1207 198 95 434 165 642 189 104 12 358 12 462 1z"/>
<path d="M1790 2560 l0 -1030 260 0 260 0 0 1030 0 1030 -260 0 -260 0 0
-1030z"/>
<path d="M2810 2560 l0 -1030 260 0 260 0 0 1030 0 1030 -260 0 -260 0 0
-1030z"/>
</g>
</svg>
