<?xml version="1.0" encoding="utf-8"?>
<!-- Generator: Adobe Illustrator 21.1.0, SVG Export Plug-In . SVG Version: 6.00 Build 0)  -->
<svg version="1.1" id="Layer_1" xmlns="http://www.w3.org/2000/svg" xmlns:xlink="http://www.w3.org/1999/xlink" x="0px" y="0px"
	 viewBox="0 0 21 23" style="enable-background:new 0 0 21 23;" xml:space="preserve">
<style type="text/css">
	.st0{fill:#707070;}
</style>
<title>icon/creatives</title>
<desc>Created with Sketch.</desc>
<g id="Page-1">
	<g id="Creat-campaign-step1c" transform="translate(-28.000000, -386.000000)">
		<g id="Nav_x2F_Leftbar" transform="translate(0.000000, 140.000000)">
			<g id="Nav_x2F_content2" transform="translate(27.000000, 246.000000)">
				<g id="icon_x2F_creatives" transform="translate(1.000000, 0.000000)">
					<path id="Fill-1" class="st0" d="M1.4,9.5H0.3C0.2,9.5,0,9.6,0,9.8c0,0.2,0.2,0.3,0.3,0.3h1.1c0.2,0,0.3-0.1,0.3-0.3
						C1.8,9.6,1.6,9.5,1.4,9.5"/>
					<path id="Fill-3" class="st0" d="M20.6,9.5h-1.1c-0.2,0-0.3,0.1-0.3,0.3c0,0.2,0.2,0.3,0.3,0.3h1.1c0.2,0,0.3-0.1,0.3-0.3
						C21,9.6,20.8,9.5,20.6,9.5"/>
					<path id="Fill-5" class="st0" d="M3.7,15.8l-0.8,0.7c-0.1,0.1-0.1,0.3,0,0.5c0.1,0.1,0.3,0.1,0.5,0l0.8-0.7
						c0.1-0.1,0.1-0.3,0-0.5C4,15.7,3.8,15.7,3.7,15.8"/>
					<path id="Fill-7" class="st0" d="M17.3,3.8L18.1,3c0.1-0.1,0.1-0.3,0-0.5c-0.1-0.1-0.3-0.1-0.5,0l-0.8,0.7
						c-0.1,0.1-0.1,0.3,0,0.5C17,3.9,17.2,3.9,17.3,3.8"/>
					<path id="Fill-9" class="st0" d="M10.5,0c-0.2,0-0.3,0.1-0.3,0.3v1.1c0,0.2,0.2,0.3,0.3,0.3c0.2,0,0.3-0.1,0.3-0.3V0.3
						C10.8,0.1,10.7,0,10.5,0"/>
					<path id="Fill-11" class="st0" d="M17.3,15.8c-0.1-0.1-0.3-0.1-0.5,0c-0.1,0.1-0.1,0.3,0,0.5l0.8,0.7c0.1,0.1,0.3,0.1,0.5,0
						c0.1-0.1,0.1-0.3,0-0.5L17.3,15.8z"/>
					<path id="Fill-13" class="st0" d="M3.7,3.8c0.1,0.1,0.3,0.1,0.5,0c0.1-0.1,0.1-0.3,0-0.5L3.4,2.6C3.2,2.4,3,2.4,2.9,2.6
						C2.8,2.7,2.8,2.9,2.9,3L3.7,3.8z"/>
					<path id="Fill-15" class="st0" d="M10.5,7.8c1.2,0,2.1,0.9,2.1,2c0,1.1-0.9,2-2.1,2s-2.1-0.9-2.1-2C8.4,8.7,9.3,7.8,10.5,7.8
						 M7.7,9.8c0,1.5,1.2,2.6,2.8,2.6c1.5,0,2.8-1.2,2.8-2.6S12,7.1,10.5,7.1C8.9,7.1,7.7,8.3,7.7,9.8"/>
					<path id="Fill-17" class="st0" d="M10.1,9.1c0-0.2,0.2-0.2,0.3-0.3v0.6C10.2,9.3,10.1,9.3,10.1,9.1z M10.6,10
						c0.3,0.1,0.3,0.2,0.3,0.4c0,0.2-0.1,0.3-0.3,0.3V10z M10.4,11.2v0.1c0,0.1,0.1,0.1,0.1,0.1c0.1,0,0.1,0,0.1-0.1v-0.1
						c0.4-0.1,0.8-0.3,0.8-0.8c0-0.5-0.3-0.7-0.8-0.8V8.8c0.2,0,0.2,0.1,0.4,0.1c0.1,0,0.2,0,0.3-0.1c0.1-0.1,0.1-0.2,0-0.3
						c-0.2-0.1-0.4-0.2-0.6-0.2V8.3c0-0.1-0.1-0.1-0.1-0.1c-0.1,0-0.1,0-0.1,0.1v0.1C9.9,8.5,9.6,8.7,9.6,9.2c0,0.5,0.4,0.6,0.8,0.8
						v0.8c-0.2,0-0.3-0.1-0.5-0.2c-0.1-0.1-0.2,0-0.3,0.1c-0.1,0.1-0.1,0.2,0,0.3C9.7,11.1,10.1,11.2,10.4,11.2z"/>
					<path id="Fill-19" class="st0" d="M9.6,6.1C8.8,6.3,8,6.8,7.4,7.4C6.9,8.1,6.6,8.9,6.6,9.8c0,2.1,1.8,3.7,3.9,3.7
						c2.2,0,3.9-1.7,3.9-3.7c0-0.9-0.3-1.7-0.9-2.3c-0.6-0.6-1.3-1.1-2.2-1.3c-0.2,0-0.4,0.1-0.4,0.2c0,0.2,0.1,0.3,0.3,0.4
						c1.5,0.3,2.5,1.6,2.5,3c0,1.7-1.5,3.1-3.2,3.1c-1.8,0-3.2-1.4-3.2-3.1c0-1.4,1.1-2.7,2.5-3c0.2,0,0.3-0.2,0.3-0.4
						C10,6.2,9.8,6.1,9.6,6.1"/>
					<path id="Fill-21" class="st0" d="M13,18.4c0.1,0,0.2,0.1,0.2,0.2v0.5c0,0.1-0.1,0.2-0.2,0.2H8c-0.1,0-0.2-0.1-0.2-0.2v-0.5
						c0-0.1,0.1-0.2,0.2-0.2H13z M13.2,20.5c0,0.1-0.1,0.2-0.2,0.2H8c-0.1,0-0.2-0.1-0.2-0.2v-0.5c0-0.1,0.1-0.2,0.2-0.2H13
						c0.1,0,0.2,0.1,0.2,0.2V20.5z M11.3,22.1c0,0.1-0.1,0.1-0.1,0.1H9.8c-0.1,0-0.1-0.1-0.1-0.1v-0.7h1.6L11.3,22.1L11.3,22.1z
						 M16.5,9.1c0,0.2,0.2,0.3,0.4,0.3c0.2,0,0.3-0.2,0.3-0.4c-0.4-3.2-3.3-5.6-6.6-5.7C8.7,3.3,7,4,5.8,5.2c-1.3,1.2-2,2.8-2,4.5
						c0,1.1,0.3,2.2,0.9,3.2C5.2,13.8,6,14.6,7,15.2c0.4,0.3,0.7,0.7,0.7,1.2v1.4c-0.3,0.1-0.6,0.4-0.6,0.8v0.5
						c0,0.2,0.1,0.4,0.2,0.5c-0.1,0.1-0.2,0.3-0.2,0.5v0.5c0,0.5,0.4,0.8,0.9,0.8H9v0.7c0,0.4,0.4,0.8,0.8,0.8h1.4
						c0.4,0,0.8-0.3,0.8-0.8v-0.7H13c0.5,0,0.9-0.4,0.9-0.8v-0.5c0-0.2-0.1-0.4-0.2-0.5c0.1-0.1,0.2-0.3,0.2-0.5v-0.5
						c0-0.4-0.2-0.7-0.6-0.8v-1.4c0-0.5,0.3-1,0.8-1.3c1.7-1,2.8-2.7,3.1-4.6c0-0.2-0.1-0.3-0.3-0.4c-0.2,0-0.4,0.1-0.4,0.3
						c-0.2,1.7-1.2,3.2-2.8,4.2c-0.7,0.4-1.1,1.1-1.1,1.8v1.3H8.3v-1.3c0-0.7-0.4-1.4-1-1.8c-1.8-1.1-2.9-2.9-2.9-4.9
						c0-1.5,0.6-3,1.8-4.1C7.4,4.6,8.9,4,10.5,4c0,0,0,0,0,0C13.6,4,16.2,6.2,16.5,9.1z"/>
					<path id="Fill-23" class="st0" d="M13,18.4c0.1,0,0.2,0.1,0.2,0.2v0.5c0,0.1-0.1,0.2-0.2,0.2H8c-0.1,0-0.2-0.1-0.2-0.2v-0.5
						c0-0.1,0.1-0.2,0.2-0.2H13z M7.8,20.1c0-0.1,0.1-0.2,0.2-0.2H13c0.1,0,0.2,0.1,0.2,0.2v0.5c0,0.1-0.1,0.2-0.2,0.2H8
						c-0.1,0-0.2-0.1-0.2-0.2V20.1z M9.7,22.1v-0.7h1.6v0.7c0,0.1-0.1,0.1-0.1,0.1H9.8C9.7,22.2,9.7,22.2,9.7,22.1L9.7,22.1z
						 M10.5,4C10.5,4,10.5,4,10.5,4c1.6,0,3.2,0.6,4.3,1.7c1.2,1.1,1.8,2.5,1.8,4.1c0,2-1.1,3.9-2.9,4.9c-0.6,0.4-1,1.1-1,1.8v1.3
						H8.3v-1.3c0-0.7-0.4-1.4-1.1-1.8c-1.5-0.9-2.6-2.4-2.8-4.2c0-0.2-0.2-0.3-0.4-0.3c-0.2,0-0.3,0.2-0.3,0.4
						c0.3,1.9,1.4,3.6,3.1,4.6c0.5,0.3,0.8,0.8,0.8,1.3v1.4c-0.3,0.1-0.6,0.4-0.6,0.8v0.5c0,0.2,0.1,0.4,0.2,0.5
						c-0.1,0.1-0.2,0.3-0.2,0.5v0.5c0,0.5,0.4,0.8,0.9,0.8H9v0.7c0,0.4,0.4,0.8,0.8,0.8h1.4c0.4,0,0.8-0.3,0.8-0.8v-0.7H13
						c0.5,0,0.9-0.4,0.9-0.8v-0.5c0-0.2-0.1-0.4-0.2-0.5c0.1-0.1,0.2-0.3,0.2-0.5v-0.5c0-0.4-0.2-0.7-0.6-0.8v-1.4
						c0-0.5,0.3-1,0.7-1.2c1-0.6,1.8-1.4,2.3-2.3c0.6-1,0.9-2.1,0.9-3.2c0-1.7-0.7-3.3-2-4.5c-1.3-1.2-3-1.9-4.8-1.9
						C7.1,3.4,4.2,5.8,3.8,9c0,0.2,0.1,0.3,0.3,0.4c0.2,0,0.4-0.1,0.4-0.3C4.8,6.2,7.4,4,10.5,4z"/>
					<path id="Fill-25" class="st0" d="M9.6,13.4c-0.9-0.2-1.6-0.6-2.2-1.3c-0.6-0.7-0.9-1.5-0.9-2.3c0-2.1,1.8-3.7,3.9-3.7
						c2.2,0,3.9,1.7,3.9,3.7c0,0.9-0.3,1.7-0.9,2.3c-0.6,0.6-1.3,1.1-2.2,1.3c-0.2,0-0.4-0.1-0.4-0.2c0-0.2,0.1-0.3,0.3-0.4
						c1.5-0.3,2.5-1.6,2.5-3c0-1.7-1.5-3.1-3.2-3.1c-1.8,0-3.2,1.4-3.2,3.1c0,1.4,1.1,2.7,2.5,3c0.2,0,0.3,0.2,0.3,0.4
						C10,13.3,9.8,13.5,9.6,13.4"/>
				</g>
			</g>
		</g>
	</g>
</g>
</svg>
