<?xml version="1.0" encoding="UTF-8"?>
<svg width="21px" height="16px" viewBox="0 0 21 16" version="1.1" xmlns="http://www.w3.org/2000/svg" xmlns:xlink="http://www.w3.org/1999/xlink">
    <!-- Generator: Sketch 51.3 (57544) - http://www.bohemiancoding.com/sketch -->
    <title>icon/credit card</title>
    <desc>Created with Sketch.</desc>
    <defs>
        <polygon id="path-1" points="0 0 18 0 18 12 0 12"></polygon>
        <polygon id="path-3" points="0.0178577482 0.0264923707 19.8963146 0.0264923707 19.8963146 11.8312754 0.0178577482 11.8312754"></polygon>
    </defs>
    <g id="Page-1" stroke="none" stroke-width="1" fill="none" fill-rule="evenodd">
        <g id="Creat-campaign-step1c" transform="translate(-28.000000, -599.000000)">
            <g id="Nav/Leftbar" transform="translate(0.000000, 140.000000)">
                <g id="Nav/content2" transform="translate(28.000000, 458.000000)">
                    <g id="icon/credit-card" transform="translate(0.000000, 1.000000)">
                        <g id="Group-4">
                            <mask id="mask-2" fill="white">
                                <use xlink:href="#path-1"></use>
                            </mask>
                            <g id="Clip-2"></g>
                            <path d="M1.33332031,0.600012305 C0.966679688,0.600012305 0.666679688,0.870012568 0.666679688,1.19998945 L0.666679688,10.8000105 C0.666679688,11.1300226 0.966679688,11.4000229 1.33332031,11.4000229 L16.6666797,11.4000229 C17.0333203,11.4000229 17.3333203,11.1300226 17.3333203,10.8000105 L17.3333203,1.19998945 C17.3333203,0.870012568 17.0333203,0.600012305 16.6666797,0.600012305 L1.33332031,0.600012305 Z M16.6666797,12 L1.33332031,12 C0.6,12 0,11.4599995 0,10.8000105 L0,1.19998945 C0,0.540000527 0.6,0 1.33332031,0 L16.6666797,0 C17.4,0 18,0.540000527 18,1.19998945 L18,10.8000105 C18,11.4599995 17.4,12 16.6666797,12 Z" id="Fill-1" fill="#707070" mask="url(#mask-2)"></path>
                            <path d="M0.666679688,3.39998594 L17.3333203,3.39998594 L17.3333203,1.59997891 L0.666679688,1.59997891 L0.666679688,3.39998594 Z M17.6666797,4 L0.333320312,4 C0.133320313,4 0,3.88001125 0,3.70001055 L0,1.29998945 C0,1.11998875 0.133320313,1 0.333320312,1 L17.6666797,1 C17.8666797,1 18,1.11998875 18,1.29998945 L18,3.70001055 C18,3.88001125 17.8666797,4 17.6666797,4 Z" id="Fill-3" fill="#707070" mask="url(#mask-2)"></path>
                        </g>
                        <path d="M11.1481608,9.27275052 L15.6852105,9.27275052 L15.6852105,6.72724948 L11.1481608,6.72724948 L11.1481608,9.27275052 Z M16.0092719,10 L10.8240994,10 C10.6296549,10 10.5,9.85455863 10.5,9.63637526 L10.5,6.36362474 C10.5,6.14544137 10.6296549,6 10.8240994,6 L16.0092719,6 C16.2037164,6 16.3333333,6.14544137 16.3333333,6.36362474 L16.3333333,9.63637526 C16.3333333,9.85455863 16.2037164,10 16.0092719,10 Z" id="Fill-5" fill="#707070"></path>
                        <path d="M4.31664206,7 L1.51669128,7 C1.30669292,7 1.16666667,6.80002344 1.16666667,6.5000293 C1.16666667,6.20003516 1.30669292,6 1.51669128,6 L4.31664206,6 C4.52664042,6 4.66666667,6.20003516 4.66666667,6.5000293 C4.66666667,6.80002344 4.52664042,7 4.31664206,7" id="Fill-6" fill="#707070"></path>
                        <path d="M8.98330872,7 L6.18335794,7 C5.97335958,7 5.83333333,6.80002344 5.83333333,6.5000293 C5.83333333,6.20003516 5.97335958,6 6.18335794,6 L8.98330872,6 C9.19330708,6 9.33333333,6.20003516 9.33333333,6.5000293 C9.33333333,6.80002344 9.19330708,7 8.98330872,7" id="Fill-7" fill="#707070"></path>
                        <path d="M5.52223437,9 L1.47780208,9 C1.29113542,9 1.16666667,8.80001172 1.16666667,8.5 C1.16666667,8.19998828 1.29113542,8 1.47780208,8 L5.52223437,8 C5.70890104,8 5.83333333,8.19998828 5.83333333,8.5 C5.83333333,8.80001172 5.70890104,9 5.52223437,9" id="Fill-8" fill="#707070"></path>
                        <g id="Group-12" transform="translate(1.166667, 4.000000)">
                            <mask id="mask-4" fill="white">
                                <use xlink:href="#path-3"></use>
                            </mask>
                            <g id="Clip-10"></g>
                            <path d="M7.7167932,5.80879227 L6.67339397,5.80879227 C6.46471413,5.80879227 6.32560782,5.69172802 6.32560782,5.51611449 C6.32560782,5.34050097 6.46471413,5.22343671 6.67339397,5.22343671 L7.7167932,5.22343671 C7.92547305,5.22343671 8.06462011,5.34050097 8.06462011,5.51611449 C8.06462011,5.69172802 7.92547305,5.80879227 7.7167932,5.80879227" id="Fill-9" fill="#707070" mask="url(#mask-4)"></path>
                            <path d="M0.726018377,9.19913043 C0.760825523,9.46255072 1.00427176,9.69671353 1.35205791,9.72597101 L17.3856396,11.2479778 C17.7682329,11.2772353 18.1160191,11.0430725 18.1507855,10.7211372 L19.1941847,1.32581353 C19.2289918,1.17945749 19.1594183,1.00384396 19.0550784,0.88677971 C18.9507385,0.769681159 18.776825,0.681874396 18.6029523,0.681874396 L17.8029993,0.62335942 L17.8029993,8.02838502 C17.8029993,8.67228986 17.1769598,9.19913043 16.4118139,9.19913043 L0.726018377,9.19913043 Z M17.4552132,11.8333333 C17.420406,11.8333333 17.3508732,11.8333333 17.3160661,11.8333333 L1.24771799,10.3113609 C0.482572143,10.2528116 -0.0738938594,9.66745604 0.0304460634,9.02351691 L0.0652124517,8.87719517 C0.0652124517,8.73083913 0.204318763,8.61377488 0.37823222,8.61377488 C0.37823222,8.61377488 0.412998608,8.61377488 0.447805754,8.61377488 L16.4118139,8.61377488 C16.7943665,8.61377488 17.1073862,8.35035459 17.1073862,8.02838502 L17.1073862,0.301389855 C17.1073862,0.213583092 17.1421934,0.125776329 17.2117262,0.0965188406 C17.2812997,0.0379695652 17.3856396,0.00871207729 17.4899796,0.0379695652 L18.6377187,0.155033816 C19.020312,0.184325604 19.3333318,0.330647343 19.576778,0.594067633 C19.8202242,0.828230435 19.9245642,1.1502 19.8897978,1.44287778 L18.8463985,10.8382014 C18.776825,11.3942995 18.1507855,11.8333333 17.4552132,11.8333333 Z" id="Fill-11" fill="#707070" mask="url(#mask-4)"></path>
                        </g>
                    </g>
                </g>
            </g>
        </g>
    </g>
</svg>