<?xml version="1.0" encoding="utf-8"?>
<!-- Generator: Adobe Illustrator 16.0.0, SVG Export Plug-In . SVG Version: 6.00 Build 0)  -->
<!DOCTYPE svg PUBLIC "-//W3C//DTD SVG 1.1//EN" "http://www.w3.org/Graphics/SVG/1.1/DTD/svg11.dtd">
<svg xmlns="http://www.w3.org/2000/svg" xmlns:xlink="http://www.w3.org/1999/xlink" version="1.1" id="House" x="0px" y="0px" width="512" height="512" viewBox="0 0 144.083 144" enable-background="new 0 0 144.083 144" xml:space="preserve">
<path d="M118.186,69.344l-43.99-43.991c-0.396-0.396-0.897-0.661-1.438-0.784c-0.994-0.257-2.095,0.006-2.872,0.784l-8.583,8.583  v-3.405c0-1.657-1.343-3-3-3H42.154c-1.657,0-3,1.343-3,3v25.554L25.896,69.344c-1.171,1.171-1.171,3.07,0,4.242l7.857,7.857  c0.563,0.563,1.326,0.879,2.121,0.879s1.559-0.316,2.121-0.879l1.158-1.158v36.242c0,1.657,1.343,3,3,3h18.013c1.657,0,3-1.343,3-3  V85.916h18.249v30.611c0,1.657,1.343,3,3,3h17.512c1.657,0,3-1.343,3-3v-36.24l1.156,1.156c1.172,1.172,3.07,1.172,4.242,0  l7.859-7.857c0.563-0.563,0.879-1.325,0.879-2.121S118.749,69.906,118.186,69.344z M45.154,33.531h10.148v6.405L45.154,50.085  V33.531z M98.928,113.527H87.417V82.916c0-1.657-1.343-3-3-3h-24.25c-1.657,0-3,1.343-3,3v30.611H45.154V74.285l26.888-26.889  l26.886,26.89V113.527z M108.206,75.079L74.163,41.033c-0.563-0.563-1.325-0.879-2.12-0.879c-0.796,0-1.559,0.315-2.121,0.879  L35.875,75.079l-3.615-3.614l39.781-39.783l39.78,39.782L108.206,75.079z"/>
</svg>
