<?xml version="1.0" encoding="utf-8"?>
<!-- Generator: Adobe Illustrator 21.1.0, SVG Export Plug-In . SVG Version: 6.00 Build 0)  -->
<svg version="1.1" id="Layer_1" xmlns="http://www.w3.org/2000/svg" xmlns:xlink="http://www.w3.org/1999/xlink" x="0px" y="0px"
	 viewBox="0 0 21 22.3" style="enable-background:new 0 0 21 22.3;" xml:space="preserve">
<style type="text/css">
	.st0{filter:url(#Adobe_OpacityMaskFilter);}
	.st1{fill:#FFFFFF;}
	.st2{mask:url(#mask-2);fill:#707070;}
	.st3{fill:#707070;}
	.st4{filter:url(#Adobe_OpacityMaskFilter_1_);}
	.st5{mask:url(#mask-4);fill:#707070;}
</style>
<title>icon/tool</title>
<desc>Created with Sketch.</desc>
<g id="Page-1">
	<g id="Creat-campaign-step1c" transform="translate(-28.000000, -437.000000)">
		<g id="Nav_x2F_Leftbar" transform="translate(0.000000, 140.000000)">
			<g id="Nav_x2F_content2" transform="translate(28.000000, 297.000000)">
				<g id="icon_x2F_tool">
					<g id="Group-3" transform="translate(0.000000, 0.000043)">
						<g id="Clip-2">
						</g>
						<defs>
							<filter id="Adobe_OpacityMaskFilter" filterUnits="userSpaceOnUse" x="0" y="0" width="15.2" height="9.2">
								<feColorMatrix  type="matrix" values="1 0 0 0 0  0 1 0 0 0  0 0 1 0 0  0 0 0 1 0"/>
							</filter>
						</defs>
						<mask maskUnits="userSpaceOnUse" x="0" y="0" width="15.2" height="9.2" id="mask-2">
							<g class="st0">
								<polygon id="path-1" class="st1" points="0,0 15.2,0 15.2,9.3 0,9.3 								"/>
							</g>
						</mask>
						<path id="Fill-1" class="st2" d="M1.3,8.6c-0.4,0-0.7-0.3-0.7-0.7c0-0.4,0.3-0.7,0.7-0.7C1.7,7.3,2,7.6,2,7.9
							C2,8.3,1.7,8.6,1.3,8.6 M5.2,3.7c0.4,0,0.7,0.3,0.7,0.7C5.8,4.7,5.5,5,5.2,5C4.8,5,4.5,4.7,4.5,4.3C4.5,4,4.8,3.7,5.2,3.7
							 M9,6.8c0.4,0,0.7,0.3,0.7,0.7c0,0.4-0.3,0.7-0.7,0.7S8.4,7.8,8.4,7.4C8.4,7.1,8.7,6.8,9,6.8 M13.9,0.7c0.4,0,0.7,0.3,0.7,0.7
							c0,0.4-0.3,0.7-0.7,0.7c-0.4,0-0.7-0.3-0.7-0.7C13.2,1,13.5,0.7,13.9,0.7 M5.2,5.7c0.3,0,0.5-0.1,0.7-0.2l1.9,1.5
							C7.7,7.1,7.7,7.3,7.7,7.4c0,0.7,0.6,1.3,1.3,1.3s1.3-0.6,1.3-1.3c0-0.3-0.1-0.5-0.2-0.7l3.2-4.1c0.2,0.1,0.3,0.1,0.5,0.1
							c0.7,0,1.3-0.6,1.3-1.3S14.6,0,13.9,0c-0.7,0-1.3,0.6-1.3,1.3c0,0.3,0.1,0.6,0.3,0.8L9.6,6.3C9.4,6.2,9.2,6.1,9,6.1
							c-0.3,0-0.6,0.1-0.8,0.3L6.3,4.9c0.1-0.2,0.1-0.4,0.1-0.6C6.5,3.6,5.9,3,5.2,3C4.4,3,3.9,3.6,3.9,4.3C3.9,4.6,3.9,4.8,4,5
							L2,6.8C1.8,6.7,1.6,6.6,1.3,6.6C0.6,6.6,0,7.2,0,7.9s0.6,1.3,1.3,1.3s1.3-0.6,1.3-1.3c0-0.2-0.1-0.4-0.2-0.6l2-1.8
							C4.7,5.6,4.9,5.7,5.2,5.7"/>
					</g>
					<path id="Fill-4" class="st3" d="M20.3,11.5c-0.5-0.3-1.2-0.3-1.8,0.4l-1.2,1.6V9.9c0-0.2-0.1-0.3-0.3-0.3s-0.3,0.1-0.3,0.3
						v4.7c0,0.3,0.4,0.4,0.6,0.2l1.8-2.4c0,0,0,0,0,0c0.3-0.4,0.7-0.4,0.9-0.3c0.2,0.1,0.4,0.5,0.3,0.8c0,0,0,0,0,0l-1.9,4.3
						c-0.3,0.7-0.7,1-1.2,1.5c-0.5,0.5-0.5,1.3-0.5,1.9c0,0.3,0,0.7-0.1,0.9c-0.1,0.1-0.2,0.1-0.4,0.1h-2.9c-0.2,0-0.3,0.1-0.3,0.3
						s0.1,0.3,0.3,0.3h2.9c0.4,0,0.7-0.1,0.9-0.3c0.4-0.4,0.3-0.9,0.3-1.3c0-0.4,0-1.2,0.3-1.4c0.5-0.5,1-0.9,1.4-1.7c0,0,0,0,0,0
						l1.9-4.3C21.2,12.5,20.8,11.8,20.3,11.5"/>
					<g id="Group-8" transform="translate(9.027397, 3.817395)">
						<g id="Clip-7">
						</g>
						<defs>
							<filter id="Adobe_OpacityMaskFilter_1_" filterUnits="userSpaceOnUse" x="0" y="0" width="8.3" height="18.4">
								<feColorMatrix  type="matrix" values="1 0 0 0 0  0 1 0 0 0  0 0 1 0 0  0 0 0 1 0"/>
							</filter>
						</defs>
						<mask maskUnits="userSpaceOnUse" x="0" y="0" width="8.3" height="18.4" id="mask-4">
							<g class="st4">
								<polygon id="path-3" class="st1" points="0,0 8.3,0 8.3,18.4 0,18.4 								"/>
							</g>
						</mask>
						<path id="Fill-6" class="st5" d="M5.7,7.1v2.3c0,0.2,0.1,0.3,0.3,0.3c0.2,0,0.3-0.1,0.3-0.3c0-7.9,0-7.4,0-8.2
							C6.4,1,6.7,0.7,7,0.7h0c0.3,0,0.6,0.3,0.6,0.6v5.2c0,0.2,0.1,0.3,0.3,0.3c0.2,0,0.3-0.1,0.3-0.3V1.3C8.3,0.6,7.7,0,7,0h0
							C6.3,0,5.7,0.6,5.7,1.3c0,0.6,0,0.4,0,4.7C5.6,5.9,5.3,5.9,5.1,5.9C4.7,5.9,4.3,6.1,4,6.4C3.8,6.2,3.5,6.1,3.2,6.1
							c-0.4,0-0.8,0.2-1,0.5C1.9,6.4,1.6,6.3,1.3,6.3C0.6,6.3,0,6.9,0,7.6c0,2.7,0,5.1,0,5.5c0,1.8,1.4,1.8,1.4,3l0,1.1
							c0,0.7,0.4,1.2,1,1.3c0,0,0,0,0,0h2.2c0.2,0,0.3-0.1,0.3-0.3c0-0.2-0.1-0.3-0.3-0.3H2.5c-0.3,0-0.4-0.2-0.4-0.6l0-1.1
							c0-1.6-1.4-1.4-1.4-3c0-5,0-3.8,0-5.5C0.7,7.2,0.9,7,1.3,7c0.3,0,0.6,0.3,0.6,0.6v1.9c0,0.2,0.1,0.3,0.3,0.3
							c0.2,0,0.3-0.1,0.3-0.3V7.6V7.4c0-0.3,0.3-0.6,0.6-0.6s0.6,0.3,0.6,0.6v2.1c0,0.2,0.1,0.3,0.3,0.3c0.2,0,0.3-0.1,0.3-0.3V7.1
							c0-0.3,0.3-0.6,0.6-0.6C5.4,6.5,5.7,6.8,5.7,7.1"/>
					</g>
				</g>
			</g>
		</g>
	</g>
</g>
</svg>
