<?xml version="1.0" encoding="utf-8"?>
<!-- Generator: Adobe Illustrator 21.1.0, SVG Export Plug-In . SVG Version: 6.00 Build 0)  -->
<svg version="1.1" id="Layer_1" xmlns="http://www.w3.org/2000/svg" xmlns:xlink="http://www.w3.org/1999/xlink" x="0px" y="0px"
	 viewBox="0 0 18 19.2" style="enable-background:new 0 0 18 19.2;" xml:space="preserve">
<title>view-files-xanh</title>
<g id="Page-1">
	<g id="view-files">
		<path id="Shape" class="st0" d="M1.8,17.8c-0.2,0.1-0.4-0.1-0.5-0.3v-0.1V4.1c0-0.2,0.2-0.4,0.4-0.4h0.1h9.7
			C11.7,3.6,11.9,3.8,12,4v0.1v5.7l1.3-0.3V4.1c-0.1-1-0.8-1.7-1.8-1.7H3.9V1.7c0-0.2,0.2-0.4,0.4-0.4h0.1H14
			c0.2-0.1,0.4,0.1,0.5,0.3v0.1v7.9l1.3,0.3V1.7C15.7,0.7,15,0,14,0H4.3c-1,0-1.7,0.7-1.8,1.7v0.7H1.8c-1,0-1.7,0.7-1.8,1.7v13.2
			c0.1,1,0.8,1.7,1.8,1.7h7.8c-0.4-0.4-0.7-0.8-1-1.3L1.8,17.8z"/>
		<path id="Shape-2" class="st0" d="M4.1,7.4H8c0.4,0,0.6-0.3,0.6-0.7S8.4,6.1,8,6.1H4.1c-0.4,0-0.6,0.3-0.6,0.6
			C3.5,7.1,3.7,7.4,4.1,7.4z"/>
		<path id="Shape-3" class="st0" d="M9.9,9.6C9.8,9.3,9.6,9,9.2,9H4.1C3.7,9,3.4,9.3,3.4,9.6c0,0.4,0.3,0.7,0.7,0.7h5.1
			C9.6,10.3,9.9,10,9.9,9.6z"/>
		<path id="Shape-4" class="st0" d="M9.1,11.8h-5c-0.4,0-0.7,0.3-0.7,0.7s0.3,0.6,0.7,0.6h4.2C8.5,12.6,8.8,12.2,9.1,11.8z"/>
		<path id="Shape-5" class="st0" d="M4.1,14.6c-0.4,0-0.7,0.3-0.7,0.6c0,0.4,0.3,0.7,0.7,0.7h3.8c-0.1-0.3-0.1-0.5-0.1-0.8
			c0-0.2,0-0.3,0-0.5H4.1z"/>
		<path id="Shape-6" class="st0" d="M13.8,13.8c-1,0.1-1.9,0.6-2.6,1.3c0.7,0.7,1.6,1.2,2.6,1.3c1-0.1,1.9-0.6,2.6-1.3
			C15.7,14.4,14.8,13.9,13.8,13.8z M13.8,16.1c-0.6,0-1-0.4-1-1s0.4-1,1-1s1,0.4,1,1S14.4,16.1,13.8,16.1z"/>
		<path id="Shape-7" class="st0" d="M13.8,11.1c-2.3-0.1-4.1,1.7-4.2,4l0,0c0.1,2.3,1.9,4.1,4.2,4l0,0c2.3,0.1,4.1-1.7,4.2-4l0,0
			C17.9,12.8,16.1,11,13.8,11.1L13.8,11.1z M13.8,17.1c-1.3-0.1-2.5-0.8-3.3-1.8c-0.1-0.1-0.1-0.3,0-0.4c0.8-1,2-1.7,3.3-1.8
			c1.3,0.1,2.5,0.8,3.3,1.8c0.1,0.1,0.1,0.3,0,0.4C16.3,16.3,15.1,17,13.8,17.1z"/>
	</g>
</g>
</svg>
